HIERARCHY
ROOT Hips
{
  OFFSET 0.0273292 -0.436096 0.279869
  CHANNELS 6 Xposition Yposition Zposition Zrotation Xrotation Yrotation
  JOINT LHipJoint
  {
    OFFSET 0 0 0
    CHANNELS 6 Xposition Yposition Zposition Zrotation Xrotation Yrotation
    JOINT LeftUpLeg
    {
      OFFSET 1.36306 -1.79463 0
      CHANNELS 6 Xposition Yposition Zposition Zrotation Xrotation Yrotation
      JOINT LeftLeg
      {
        OFFSET 2.44807 -6.72613 0.000295034
        CHANNELS 6 Xposition Yposition Zposition Zrotation Xrotation Yrotation
        JOINT LeftFoot
        {
          OFFSET 2.5622 -7.03959 3.59965e-05
          CHANNELS 6 Xposition Yposition Zposition Zrotation Xrotation Yrotation
          JOINT LeftToeBase
          {
            OFFSET 0.15764 -0.43311 2.32255
            CHANNELS 6 Xposition Yposition Zposition Zrotation Xrotation Yrotation
            End Site
            {
              OFFSET 0 0 0
            }
          }
        }
      }
    }
  }
  JOINT RHipJoint
  {
    OFFSET 0 0 0
    CHANNELS 6 Xposition Yposition Zposition Zrotation Xrotation Yrotation
    JOINT RightUpLeg
    {
      OFFSET -1.30552 -1.79463 0
      CHANNELS 6 Xposition Yposition Zposition Zrotation Xrotation Yrotation
      JOINT RightLeg
      {
        OFFSET -2.54234 -6.98562 -0.000396375
        CHANNELS 6 Xposition Yposition Zposition Zrotation Xrotation Yrotation
        JOINT RightFoot
        {
          OFFSET -2.56826 -7.05623 -4.47982e-05
          CHANNELS 6 Xposition Yposition Zposition Zrotation Xrotation Yrotation
          JOINT RightToeBase
          {
            OFFSET -0.16473 -0.45259 2.36315
            CHANNELS 6 Xposition Yposition Zposition Zrotation Xrotation Yrotation
            End Site
            {
              OFFSET 0 0 0
            }
          }
        }
      }
    }
  }
  JOINT LowerBack
  {
    OFFSET 0 0 0
    CHANNELS 6 Xposition Yposition Zposition Zrotation Xrotation Yrotation
    JOINT Spine
    {
      OFFSET 0.0282699 2.03559 0
      CHANNELS 6 Xposition Yposition Zposition Zrotation Xrotation Yrotation
      JOINT Spine1
      {
        OFFSET 0.05672 2.04885 -0.04275
        CHANNELS 6 Xposition Yposition Zposition Zrotation Xrotation Yrotation
        JOINT Neck
        {
          OFFSET 0 0 0
          CHANNELS 6 Xposition Yposition Zposition Zrotation Xrotation Yrotation
          JOINT Neck1
          {
            OFFSET -0.05417 1.74624 0.17202
            CHANNELS 6 Xposition Yposition Zposition Zrotation Xrotation Yrotation
            JOINT Head
            {
              OFFSET 0.10407 1.76136 -0.12397
              CHANNELS 6 Xposition Yposition Zposition Zrotation Xrotation Yrotation
              End Site
              {
                OFFSET 0 0 0
              }
            }
          }
        }
        JOINT LeftShoulder
        {
          OFFSET 0 0 0
          CHANNELS 6 Xposition Yposition Zposition Zrotation Xrotation Yrotation
          JOINT LeftArm
          {
            OFFSET 3.36241 1.20089 -0.311211
            CHANNELS 6 Xposition Yposition Zposition Zrotation Xrotation Yrotation
            JOINT LeftForeArm
            {
              OFFSET 4.983 0.000197398 0.000166057
              CHANNELS 6 Xposition Yposition Zposition Zrotation Xrotation Yrotation
              JOINT LeftHand
              {
                OFFSET 3.48356 0 1.87849e-05
                CHANNELS 6 Xposition Yposition Zposition Zrotation Xrotation Yrotation
                JOINT LeftFingerBase
                {
                  OFFSET 0 0 0
                  CHANNELS 6 Xposition Yposition Zposition Zrotation Xrotation Yrotation
                  JOINT LeftHandIndex1
                  {
                    OFFSET 0.71526 0 0
                    CHANNELS 6 Xposition Yposition Zposition Zrotation Xrotation Yrotation
                    End Site
                    {
                      OFFSET 0 0 0
                    }
                  }
                }
                JOINT LThumb
                {
                  OFFSET 0 0 0
                  CHANNELS 6 Xposition Yposition Zposition Zrotation Xrotation Yrotation
                  End Site
                  {
                    OFFSET 0 0 0
                  }
                }
              }
            }
          }
        }
        JOINT RightShoulder
        {
          OFFSET 0 0 0
          CHANNELS 6 Xposition Yposition Zposition Zrotation Xrotation Yrotation
          JOINT RightArm
          {
            OFFSET -3.1366 1.37405 -0.404651
            CHANNELS 6 Xposition Yposition Zposition Zrotation Xrotation Yrotation
            JOINT RightForeArm
            {
              OFFSET -5.2419 -5.8808e-05 -0.000165864
              CHANNELS 6 Xposition Yposition Zposition Zrotation Xrotation Yrotation
              JOINT RightHand
              {
                OFFSET -3.44417 0 -2.00002e-05
                CHANNELS 6 Xposition Yposition Zposition Zrotation Xrotation Yrotation
                JOINT RightFingerBase
                {
                  OFFSET 0 0 0
                  CHANNELS 6 Xposition Yposition Zposition Zrotation Xrotation Yrotation
                  JOINT RightHandIndex1
                  {
                    OFFSET -0.62253 0 0
                    CHANNELS 6 Xposition Yposition Zposition Zrotation Xrotation Yrotation
                    End Site
                    {
                      OFFSET 0 0 0
                    }
                  }
                }
                JOINT RThumb
                {
                  OFFSET 0 0 0
                  CHANNELS 6 Xposition Yposition Zposition Zrotation Xrotation Yrotation
                  End Site
                  {
                    OFFSET 0 0 0
                  }
                }
              }
            }
          }
        }
      }
    }
  }
}
MOTION
Frames:	6
Frame Time:	0.00833333
-0.0758764 2.09006 0.156438 0.698301 -1.68039 1.98734 0 0 0 1.2424e-17 0 7.95139e-16 1.36306 -1.79463 2.34536e-08 -12.5972 -3.28294 9.82574 2.4481 -6.72614 -6.20344e-05 -0.450089 9.20792 -1.64738 2.5622 -7.03959 -1.63151e-05 -6.76743 -5.40574 -2.04463 0.15764 -0.43311 2.32255 7.95139e-15 3.97569e-16 -3.18055e-15 0 0 0 1.2424e-17 0 7.95139e-16 -1.30552 -1.79463 -1.52547e-08 17.9801 -12.4379 -8.28122 -2.54245 -6.98559 0.000473882 2.45503 25.6914 -8.50268 -2.56826 -7.05622 4.55407e-05 -0.662737 -15.3685 5.37399 -0.16473 -0.45259 2.36315 -3.97569e-16 0 -3.18055e-15 0 0 0 1.2424e-17 0 7.95139e-16 0.02827 2.03559 3.46244e-08 0.711226 3.1697 0.717614 0.05672 2.04885 -0.04275 -2.23633e-16 -1.98785e-16 -0 0 0 0 -4.22417e-16 -1.98785e-16 3.97569e-16 -0.05417 1.74624 0.17202 0.131103 0.952299 -0.337539 0.10407 1.76136 -0.12397 2.36057e-16 3.97569e-16 -3.97569e-16 0 0 0 -4.22417e-16 -1.98785e-16 3.97569e-16 3.36241 1.20089 -0.31121 -82.3983 4.9681 -1.22368 4.983 0.00019132 0.000172723 1.00114 0.293675 -10.1749 3.48356 4.28674e-06 -1.06966e-05 0.296468 -0.115499 -0.287409 0 0 0 2.33572e-15 -7.95139e-16 3.18055e-15 0.71526 -8.88178e-16 -5.55112e-17 4.07509e-15 3.97569e-16 1.59028e-15 0 0 0 2.33572e-15 -7.95139e-16 3.18055e-15 0 0 0 -4.22417e-16 -1.98785e-16 3.97569e-16 -3.1366 1.37406 -0.404651 83.2553 24.182 1.33603 -5.2419 0.000237057 0.000110666 -0.999523 0.284294 9.73167 -3.44417 4.89083e-06 -9.35134e-06 -6.35384 1.42418 1.77374 0 0 0 -7.95139e-16 -3.18055e-15 -0 -0.62253 4.44089e-16 -2.22045e-16 -3.18055e-15 -3.18055e-15 -0 0 0 0 -7.95139e-16 -3.18055e-15 -0 
-0.07596 2.08994 0.157883 0.698054 -1.68515 1.99197 0 0 0 -7.45443e-17 0 -0 1.36306 -1.79463 2.34536e-08 -12.5954 -3.27399 9.82976 2.4481 -6.72614 -6.20344e-05 -0.450172 9.21068 -1.65398 2.5622 -7.03959 -1.63151e-05 -6.76831 -5.41109 -2.04691 0.15764 -0.43311 2.32255 -3.77691e-15 -7.95139e-16 1.59028e-15 0 0 0 -7.45443e-17 0 -0 -1.30552 -1.79463 -1.52547e-08 17.9805 -12.4266 -8.28548 -2.54245 -6.98559 0.000473882 2.45475 25.6891 -8.50711 -2.56826 -7.05622 4.55407e-05 -0.660227 -15.3749 5.3766 -0.16473 -0.45259 2.36315 -1.39149e-15 -3.97569e-16 1.59028e-15 0 0 0 -7.45443e-17 0 -0 0.02827 2.03559 3.46244e-08 0.710203 3.16132 0.722523 0.05672 2.04885 -0.04275 -3.23025e-16 1.98785e-16 3.97569e-16 0 0 0 -1.11816e-16 0 3.97569e-16 -0.05417 1.74624 0.17202 0.132983 0.952574 -0.336413 0.10407 1.76136 -0.12397 -8.69683e-17 -7.95139e-16 3.97569e-16 0 0 0 -1.11816e-16 0 3.97569e-16 3.36241 1.20089 -0.31121 -82.4024 4.95427 -1.22009 4.983 0.00019132 0.000172723 1.00114 0.293652 -10.1737 3.48356 4.28674e-06 -1.06966e-05 0.2974 -0.116489 -0.289158 0 0 0 1.14301e-15 1.19271e-15 1.59028e-15 0.71526 -8.88178e-16 0 -2.98177e-16 7.95139e-16 -1.59028e-15 0 0 0 1.14301e-15 1.19271e-15 1.59028e-15 0 0 0 -1.11816e-16 0 3.97569e-16 -3.1366 1.37406 -0.404651 83.26 24.1849 1.33839 -5.2419 0.000237057 0.000110666 -0.999514 0.284283 9.73154 -3.44417 4.89083e-06 -9.35134e-06 -6.37062 1.43069 1.78032 0 0 0 -0 0 1.59028e-15 -0.62253 0 2.22045e-16 -0 0 1.59028e-15 0 0 0 -0 0 1.59028e-15 
-0.0760471 2.08983 0.159327 0.697806 -1.6899 1.99661 0 0 0 3.10601e-16 1.98785e-16 -0 1.36306 -1.79463 2.34536e-08 -12.5935 -3.26501 9.83379 2.4481 -6.72614 -6.20344e-05 -0.450278 9.21344 -1.66055 2.5622 -7.03959 -1.63151e-05 -6.76921 -5.41647 -2.04921 0.15764 -0.43311 2.32255 3.23025e-15 0 -0 0 0 0 3.10601e-16 1.98785e-16 -0 -1.30552 -1.79463 -1.52547e-08 17.981 -12.4156 -8.28963 -2.54245 -6.98559 0.000473882 2.45447 25.687 -8.51163 -2.56826 -7.05622 4.55407e-05 -0.657753 -15.3813 5.3792 -0.16473 -0.45259 2.36315 -2.43511e-15 0 -0 0 0 0 3.10601e-16 1.98785e-16 -0 0.02827 2.03559 3.46244e-08 0.709178 3.15298 0.72741 0.05672 2.04885 -0.04275 2.48481e-17 -1.98785e-16 -3.97569e-16 0 0 0 2.23633e-16 0 -3.97569e-16 -0.05417 1.74624 0.17202 0.134857 0.952847 -0.335296 0.10407 1.76136 -0.12397 -9.93923e-17 -3.97569e-16 -3.97569e-16 0 0 0 2.23633e-16 0 -3.97569e-16 3.36241 1.20089 -0.31121 -82.4064 4.94054 -1.21651 4.983 0.00019132 0.000172723 1.00113 0.29363 -10.1726 3.48356 4.28674e-06 -1.06966e-05 0.29835 -0.117472 -0.290899 0 0 0 -1.83876e-15 0 3.18055e-15 0.71526 0 0 1.2424e-15 -3.97569e-16 1.59028e-15 0 0 0 -1.83876e-15 0 3.18055e-15 0 0 0 2.23633e-16 0 -3.97569e-16 -3.1366 1.37406 -0.404651 83.2648 24.1877 1.3407 -5.2419 0.000237057 0.000110666 -0.99951 0.284279 9.73141 -3.44417 4.89083e-06 -9.35134e-06 -6.38741 1.43716 1.78691 0 0 0 3.18055e-15 3.18055e-15 -3.18055e-15 -0.62253 0 4.44089e-16 -7.95139e-16 6.36111e-15 -3.18055e-15 0 0 0 3.18055e-15 3.18055e-15 -3.18055e-15 
-0.0761388 2.08972 0.160766 0.697557 -1.69465 2.00129 0 0 0 1.86361e-16 -1.98785e-16 -7.95139e-16 1.36306 -1.79463 2.34536e-08 -12.5916 -3.25598 9.83784 2.4481 -6.72614 -6.20344e-05 -0.450424 9.21619 -1.66712 2.5622 -7.03959 -1.63151e-05 -6.77011 -5.4219 -2.05153 0.15764 -0.43311 2.32255 1.19271e-15 -1.19271e-15 -1.59028e-15 0 0 0 1.86361e-16 -1.98785e-16 -7.95139e-16 -1.30552 -1.79463 -1.52547e-08 17.9815 -12.405 -8.29363 -2.54245 -6.98559 0.000473882 2.4542 25.6855 -8.5163 -2.56826 -7.05622 4.55407e-05 -0.655313 -15.3877 5.38179 -0.16473 -0.45259 2.36315 -5.31749e-15 -7.95139e-16 1.59028e-15 0 0 0 1.86361e-16 -1.98785e-16 -7.95139e-16 0.02827 2.03559 3.46244e-08 0.708151 3.14468 0.732277 0.05672 2.04885 -0.04275 -5.09386e-16 0 3.97569e-16 0 0 0 -3.35449e-16 0 -0 -0.05417 1.74624 0.17202 0.136723 0.953121 -0.334187 0.10407 1.76136 -0.12397 8.69683e-17 -3.97569e-16 7.95139e-16 0 0 0 -3.35449e-16 0 -0 3.36241 1.20089 -0.31121 -82.4103 4.9269 -1.21293 4.983 0.00019132 0.000172723 1.00112 0.293608 -10.1715 3.48356 4.28674e-06 -1.06966e-05 0.299321 -0.118449 -0.292667 0 0 0 -6.4605e-16 -1.19271e-15 -0 0.71526 8.88178e-16 0 -6.4605e-16 -1.19271e-15 -0 0 0 0 -6.4605e-16 -1.19271e-15 -0 0 0 0 -3.35449e-16 0 -0 -3.1366 1.37406 -0.404651 83.2697 24.1905 1.34296 -5.2419 0.000237057 0.000110666 -0.999509 0.284279 9.73128 -3.44417 4.89083e-06 -9.35134e-06 -6.40417 1.44357 1.79353 0 0 0 7.95139e-16 3.18055e-15 -1.59028e-15 -0.62253 8.88178e-16 -4.44089e-16 0 0 -1.59028e-15 0 0 0 7.95139e-16 3.18055e-15 -1.59028e-15 
-0.0762343 2.08961 0.1622 0.697309 -1.69941 2.00601 0 0 0 -1.49089e-16 0 -0 1.36306 -1.79463 2.34536e-08 -12.5896 -3.24692 9.8419 2.4481 -6.72614 -6.20344e-05 -0.450592 9.21892 -1.67368 2.5622 -7.03959 -1.63151e-05 -6.77103 -5.42735 -2.05386 0.15764 -0.43311 2.32255 1.59028e-15 -3.97569e-16 1.59028e-15 0 0 0 -1.49089e-16 0 -0 -1.30552 -1.79463 -1.52547e-08 17.9821 -12.3946 -8.29757 -2.54245 -6.98559 0.000473882 2.45392 25.6842 -8.52101 -2.56826 -7.05622 4.55407e-05 -0.652906 -15.3942 5.38436 -0.16473 -0.45259 2.36315 3.08116e-15 7.95139e-16 -0 0 0 0 -1.49089e-16 0 -0 0.02827 2.03559 3.46244e-08 0.707122 3.13641 0.737124 0.05672 2.04885 -0.04275 1.2424e-17 0 -3.97569e-16 0 0 0 1.2424e-17 0 -0 -0.05417 1.74624 0.17202 0.138583 0.953395 -0.333085 0.10407 1.76136 -0.12397 -3.10601e-16 3.97569e-16 7.95139e-16 0 0 0 1.2424e-17 0 -0 3.36241 1.20089 -0.31121 -82.4143 4.91335 -1.20936 4.983 0.00019132 0.000172723 1.00111 0.293588 -10.1705 3.48356 4.28674e-06 -1.06966e-05 0.300314 -0.119419 -0.294452 0 0 0 -4.47266e-16 0 1.59028e-15 0.71526 8.88178e-16 0 -1.98785e-15 -1.98785e-15 3.18055e-15 0 0 0 -4.47266e-16 0 1.59028e-15 0 0 0 1.2424e-17 0 -0 -3.1366 1.37406 -0.404651 83.2747 24.1932 1.34516 -5.2419 0.000237057 0.000110666 -0.999508 0.284279 9.73114 -3.44417 4.89083e-06 -9.35134e-06 -6.4209 1.44992 1.80017 0 0 0 3.97569e-15 -3.18055e-15 -3.18055e-15 -0.62253 4.44089e-16 -2.22045e-16 0 3.18055e-15 -0 0 0 0 3.97569e-15 -3.18055e-15 -3.18055e-15 
-0.0763319 2.0895 0.163639 0.697057 -1.70413 2.01067 0 0 0 4.96962e-17 5.96354e-16 -0 1.36306 -1.79463 2.34536e-08 -12.5877 -3.23787 9.84595 2.4481 -6.72614 -6.20344e-05 -0.450758 9.22163 -1.68022 2.5622 -7.03959 -1.63151e-05 -6.77196 -5.43278 -2.0562 0.15764 -0.43311 2.32255 -4.42296e-15 0 -0 0 0 0 4.96962e-17 5.96354e-16 -0 -1.30552 -1.79463 -1.52547e-08 17.9827 -12.3842 -8.3015 -2.54245 -6.98559 0.000473882 2.45365 25.6829 -8.52568 -2.56826 -7.05622 4.55407e-05 -0.650537 -15.4006 5.38693 -0.16473 -0.45259 2.36315 -3.926e-15 -7.95139e-16 -1.59028e-15 0 0 0 4.96962e-17 5.96354e-16 -0 0.02827 2.03559 3.46244e-08 0.706091 3.12819 0.741946 0.05672 2.04885 -0.04275 -2.23633e-16 -3.97569e-16 -0 0 0 0 -1.2424e-17 -1.98785e-16 3.97569e-16 -0.05417 1.74624 0.17202 0.140436 0.953667 -0.331992 0.10407 1.76136 -0.12397 4.5969e-16 0 7.95139e-16 0 0 0 -1.2424e-17 -1.98785e-16 3.97569e-16 3.36241 1.20089 -0.31121 -82.4182 4.8999 -1.20581 4.983 0.00019132 0.000172723 1.0011 0.293569 -10.1694 3.48356 4.28674e-06 -1.06966e-05 0.301317 -0.120382 -0.296183 0 0 0 3.47873e-16 0 -0 0.71526 8.88178e-16 0 1.98785e-15 0 -1.59028e-15 0 0 0 3.47873e-16 0 -0 0 0 0 -1.2424e-17 -1.98785e-16 3.97569e-16 -3.1366 1.37406 -0.404651 83.2797 24.1959 1.34731 -5.2419 0.000237057 0.000110666 -0.999508 0.284279 9.73099 -3.44417 4.89083e-06 -9.35134e-06 -6.4377 1.45627 1.80679 0 0 0 7.95139e-16 -6.36111e-15 -1.59028e-15 -0.62253 0 -2.22045e-16 -0 -3.18055e-15 -0 0 0 0 7.95139e-16 -6.36111e-15 -1.59028e-15 
